:FULLY-SPECIFIED
:FORCE-ALL-JOINTS-BE-3DOF
:DEGREES
272
root 8.24116 16.2319 -25.2564 20.2101 68.0802 17.6204
lfemur -24.7482 8.40563 -23.0872
ltibia 39.9914 0 0
lfoot -6.9728 -20.9305 0
ltoes 62.5284 0 0
rfemur -50.6601 -6.14708 10.351
rtibia 87.8962 0 0
rfoot 9.03422 5.39336 0
rtoes -1.26286 0 0
lowerback 6.35154 -4.32682 -2.56471
upperback 1.26906 -5.945 -1.95973
thorax -2.18453 -2.93311 -0.108073
lowerneck -5.61895 -11.1091 -4.34622
upperneck 0.922989 -14.6643 4.89627
head 1.97142 -7.24373 1.69871
lclavicle 9.78963e-14 9.10112e-15 0
lhumerus -45.4941 -35.823 107.56
lradius 59.508 0 0
lwrist 20.5535 0 0
lhand 18.6105 14.9747 0
lfingers 7.12502 0 0
lthumb 43.2375 39.1286 0
rclavicle 9.78963e-14 9.10112e-15 0
rhumerus -52.3803 0.0661631 -92.0565
rradius 40.1378 0 0
rwrist 22.4703 0 0
rhand -10.0531 -3.11134 0
rfingers 7.12502 0 0
rthumb 15.8724 -751.612 0
273
root 8.32013 16.1952 -25.2043 21.1605 69.2965 18.9718
lfemur -24.5117 7.93923 -23.1632
ltibia 40.8886 0 0
lfoot -7.41872 -21.6168 0
ltoes 61.7202 0 0
rfemur -52.1897 -5.61083 11.6912
rtibia 85.4042 0 0
rfoot 8.2304 4.58738 0
rtoes -1.55191 0 0
lowerback 6.50951 -4.48629 -2.5978
upperback 1.47482 -6.15623 -2.02698
thorax -2.06231 -3.03824 -0.138578
lowerneck -5.41378 -11.1918 -4.49128
upperneck 0.826586 -14.7795 5.15291
head 1.94633 -7.30086 1.80939
lclavicle 7.55762e-14 7.88407e-15 0
lhumerus -45.2568 -35.8705 107.293
lradius 59.415 0 0
lwrist 20.6766 0 0
lhand 19.1863 15.2778 0
lfingers 7.12502 0 0
lthumb 43.7753 39.2365 0
rclavicle 7.55762e-14 7.88407e-15 0
rhumerus -53.3774 1.18651 -93.7444
rradius 42.401 0 0
rwrist 22.3517 0 0
rhand -15.172 0.0546178 0
rfingers 7.12502 0 0
rthumb 10.9504 -748.879 0
274
root 8.40205 16.1538 -25.1486 22.2511 70.4866 20.5147
lfemur -24.2276 7.52169 -23.2094
ltibia 41.8591 0 0
lfoot -7.93026 -22.3318 0
ltoes 60.8408 0 0
rfemur -53.4533 -5.02523 13.0082
rtibia 82.6685 0 0
rfoot 7.5184 3.57669 0
rtoes -1.4617 0 0
lowerback 6.65556 -4.64457 -2.65954
upperback 1.69514 -6.36527 -2.0943
thorax -1.91516 -3.14271 -0.155818
lowerneck -5.20255 -11.274 -4.63965
upperneck 0.760406 -14.8958 5.40312
head 1.93109 -7.35881 1.91822
lclavicle 5.35087e-14 6.65764e-15 0
lhumerus -45.0269 -35.9667 107.047
lradius 59.3417 0 0
lwrist 20.7492 0 0
lhand 19.6732 15.5402 0
lfingers 7.12502 0 0
lthumb 44.2298 39.3307 0
rclavicle 5.35087e-14 6.65764e-15 0
rhumerus -54.4289 2.3491 -95.3513
rradius 44.8039 0 0
rwrist 22.2422 0 0
rhand -20.1784 3.01381 0
rfingers 7.12502 0 0
rthumb 6.13678 -746.344 0
275
root 8.48665 16.1085 -25.0897 23.5261 71.6234 22.3205
lfemur -23.8452 7.1601 -23.2295
ltibia 42.8481 0 0
lfoot -8.46091 -23.0841 0
ltoes 59.9602 0 0
rfemur -54.3315 -4.46147 14.2189
rtibia 79.8915 0 0
rfoot 6.9728 2.38972 0
rtoes -0.719547 0 0
lowerback 6.79016 -4.79607 -2.76749
upperback 1.92961 -6.56536 -2.17877
thorax -1.74281 -3.2434 -0.168985
lowerneck -4.98 -11.3629 -4.79103
upperneck 0.740851 -15.0238 5.64182
head 1.92982 -7.42287 2.02279
lclavicle 3.44279e-14 5.67151e-15 0
lhumerus -44.8025 -36.1431 106.799
lradius 59.298 0 0
lwrist 20.7345 0 0
lhand 20.0276 15.729 0
lfingers 7.12502 0 0
lthumb 44.5603 39.3959 0
rclavicle 3.44279e-14 5.67151e-15 0
rhumerus -55.5234 3.50482 -96.8097
rradius 47.2323 0 0
rwrist 22.0563 0 0
rhand -24.5402 5.372 0
rfingers 7.12502 0 0
rthumb 1.9428 -744.353 0
276
root 8.57412 16.0601 -25.0279 25.0427 72.6855 24.4824
lfemur -23.2988 6.85556 -23.2314
ltibia 43.7871 0 0
lfoot -8.94895 -23.8897 0
ltoes 59.1681 0 0
rfemur -54.7022 -4.01157 15.2285
rtibia 77.3332 0 0
rfoot 6.67696 1.07117 0
rtoes 1.00242 0 0
lowerback 6.91636 -4.93509 -2.94295
upperback 2.17862 -6.74987 -2.30354
thorax -1.54557 -3.33726 -0.191475
lowerneck -4.73765 -11.4691 -4.94624
upperneck 0.786297 -15.1789 5.86538
head 1.94697 -7.50047 2.12116
lclavicle 2.16924e-14 5.24295e-15 0
lhumerus -44.578 -36.4384 106.52
lradius 59.2945 0 0
lwrist 20.5897 0 0
lhand 20.2041 15.807 0
lfingers 7.12502 0 0
lthumb 44.7252 39.414 0
rclavicle 2.16924e-14 5.24295e-15 0
rhumerus -56.6521 4.59695 -98.0533
rradius 49.5478 0 0
rwrist 21.6799 0 0
rhand -27.6164 6.65705 0
rfingers 7.12502 0 0
rthumb -1.01538 -743.32 0
277
root 8.58597 16.0534 -25.0196 25.2834 72.8185 24.8228
lfemur -23.2068 6.82032 -23.2299
ltibia 43.9051 0 0
lfoot -9.00968 -24.0021 0
ltoes 59.07 0 0
rfemur -54.6844 -3.96132 15.3328
rtibia 77.0173 0 0
rfoot 6.67299 0.874234 0
rtoes 1.35093 0 0
lowerback 6.93158 -4.95248 -2.97365
upperback 2.21345 -6.77298 -2.32458
thorax -1.51609 -3.34913 -0.195611
lowerneck -4.70281 -11.4854 -4.96745
upperneck 0.801115 -15.2029 5.89178
head 1.95165 -7.51252 2.13301
lclavicle 2.07854e-14 5.24459e-15 0
lhumerus -44.5499 -36.4938 106.482
lradius 59.2991 0 0
lwrist 20.5517 0 0
lhand 20.2029 15.8025 0
lfingers 7.12502 0 0
lthumb 44.7241 39.4101 0
rclavicle 2.07854e-14 5.24459e-15 0
rhumerus -56.8031 4.71985 -98.1872
rradius 49.8387 0 0
rwrist 21.6087 0 0
rhand -27.8703 6.69666 0
rfingers 7.12502 0 0
rthumb -1.25958 -743.3 0
278
root 8.62012 16.0335 -24.9957 26.0463 73.1925 25.889
lfemur -22.9235 6.72539 -23.2215
ltibia 44.2459 0 0
lfoot -9.19167 -24.3288 0
ltoes 58.7763 0 0
rfemur -54.5332 -3.80731 15.5918
rtibia 76.0928 0 0
rfoot 6.7136 0.252194 0
rtoes 2.49225 0 0
lowerback 6.97105 -5.00239 -3.06885
upperback 2.3164 -6.83905 -2.38715
thorax -1.42527 -3.38318 -0.206667
lowerneck -4.59963 -11.5338 -5.02936
upperneck 0.856499 -15.2746 5.96022
head 1.96859 -7.54873 2.16457
lclavicle 1.88631e-14 5.26976e-15 0
lhumerus -44.4764 -36.6757 106.386
lradius 59.3194 0 0
lwrist 20.4146 0 0
lhand 20.1614 15.769 0
lfingers 7.12502 0 0
lthumb 44.6853 39.391 0
rclavicle 1.88631e-14 5.26976e-15 0
rhumerus -57.2354 5.02301 -98.5222
rradius 50.6694 0 0
rwrist 21.3949 0 0
rhand -28.4666 6.68017 0
rfingers 7.12502 0 0
rthumb -1.83334 -743.36 0
279
root 8.67415 16.0012 -24.9581 27.3554 73.7661 27.7022
lfemur -22.4471 6.58816 -23.201
ltibia 44.7861 0 0
lfoot -9.49043 -24.8498 0
ltoes 58.2962 0 0
rfemur -54.1356 -3.55142 15.9373
rtibia 74.6093 0 0
rfoot 6.85836 -0.815345 0
rtoes 4.51457 0 0
lowerback 7.02645 -5.08051 -3.23065
upperback 2.48309 -6.94208 -2.48911
thorax -1.27248 -3.43644 -0.222428
lowerneck -4.43258 -11.6125 -5.12825
upperneck 0.963875 -15.3918 6.05689
head 2.00087 -7.60809 2.2105
lclavicle 1.69125e-14 5.34652e-15 0
lhumerus -44.371 -36.9974 106.252
lradius 59.3624 0 0
lwrist 20.1555 0 0
lhand 20.0356 15.6841 0
lfingers 7.12502 0 0
lthumb 44.5679 39.3485 0
rclavicle 1.69125e-14 5.34652e-15 0
rhumerus -57.9156 5.43036 -98.9723
rradius 51.9717 0 0
rwrist 21.0432 0 0
rhand -29.1918 6.44531 0
rfingers 7.12502 0 0
rthumb -2.53124 -743.644 0
